<svg version="1.2" xmlns="http://www.w3.org/2000/svg" viewBox="0 0 211 212" width="211" height="212">
	<title>0016 (2) copy-ai</title>
	<style>
		.s0 { fill: #fbdf63 } 
		.s1 { fill: #1565b2 } 
		.s2 { fill: #1a7bd9 } 
		.s3 { fill: #b5612a } 
		.s4 { fill: #002439 } 
		.s5 { fill: #d77d41 } 
		.s6 { fill: #8b153b } 
		.s7 { fill: #ffffff } 
		.s8 { fill: #ed2061 } 
		.s9 { fill: #f9d11f } 
		.s10 { fill: #7e42b9 } 
		.s11 { fill: #fdeda5 } 
		.s12 { fill: #99e7fa } 
		.s13 { fill: #ffa402 } 
		.s14 { fill: #ed4042 } 
		.s15 { fill: #f6928a } 
		.s16 { fill: #f4af9f } 
		.s17 { fill: #003343 } 
		.s18 { fill: #9254d7 } 
		.s19 { fill: #9090fb } 
		.s20 { fill: #f83cb6 } 
		.s21 { fill: #d51782 } 
		.s22 { fill: #60ffa0 } 
		.s23 { fill: #ea259b } 
		.s24 { fill: #ff60cf } 
		.s25 { fill: #56788b } 
		.s26 { fill: #f87675 } 
		.s27 { fill: #6c5fea } 
		.s28 { fill: #f7a29c } 
		.s29 { fill: #b9cfdf } 
		.s30 { fill: #f79e60 } 
	</style>
	<g id="Layer 1">
		<g id="&lt;Group&gt;">
			<g id="&lt;Group&gt;">
				<path id="&lt;Path&gt;" class="s0" d="m-315.9-146c0 58.5-47.4 105.9-105.9 105.9-58.6 0-106-47.4-106-105.9 0-58.6 47.4-106 106-106 58.5 0 105.9 47.4 105.9 106z"/>
				<g id="&lt;Group&gt;">
					<g id="&lt;Group&gt;">
						<path id="&lt;Path&gt;" class="s1" d="m-369.6-61v7.1c-15.4 8.8-33.2 13.8-52.2 13.8-19.2 0-37.1-5-52.5-13.9v-7c0-28.9 23.4-52.3 52.3-52.3 29 0 52.4 23.4 52.4 52.3z"/>
						<path id="&lt;Path&gt;" class="s2" d="m-369.6-61v7.1q-0.9 0.5-1.8 1h-100.9q-1.1-0.5-2-1.1v-7q0-2.8 0.3-5.6h104.1q0.3 2.8 0.3 5.6z"/>
						<path id="&lt;Path&gt;" class="s2" d="m-373.3-80.4h-97.3c2-5 4.8-9.7 8.1-13.8h81.1c3.3 4.1 6.1 8.8 8.1 13.8z"/>
					</g>
					<g id="&lt;Group&gt;">
						<path id="&lt;Path&gt;" class="s3" d="m-365.9-153.4c0 8.8-7.2 16-16 16-8.8 0-16-7.2-16-16 0-8.8 7.2-16 16-16 8.8 0 16 7.2 16 16z"/>
						<path id="&lt;Path&gt;" class="s3" d="m-446.1-153.4c0 8.8-7.1 16-15.9 16-8.9 0-16-7.2-16-16 0-8.8 7.1-16 16-16 8.8 0 15.9 7.2 15.9 16z"/>
					</g>
					<path id="&lt;Path&gt;" class="s4" d="m-374.7-201.1c1.9 1.7 3.1 4.1 3.1 6.9 0 2.7-1.2 5.2-3.1 6.9 1.9 1.6 3.1 4.1 3.1 6.8 0 2.8-1.2 5.3-3.1 6.9 1.9 1.7 3.1 4.2 3.1 6.9 0 2.8-1.2 5.2-3.1 6.9 1.9 1.7 3.1 4.1 3.1 6.9 0 5-4 9.1-9.1 9.1-2.7 0-5.2-1.3-6.8-3.2-1.7 1.9-4.2 3.2-6.9 3.2-2.8 0-5.2-1.3-6.9-3.2-1.7 1.9-4.1 3.2-6.9 3.2-2.7 0-5.2-1.3-6.9-3.2-1.6 1.9-4.1 3.2-6.9 3.2-2.7 0-5.2-1.3-6.8-3.2-1.7 1.9-4.2 3.2-6.9 3.2-2.8 0-5.2-1.3-6.9-3.2-1.7 1.9-4.1 3.2-6.9 3.2-2.7 0-5.2-1.3-6.9-3.2-1.6 1.9-4.1 3.2-6.9 3.2-5 0-9.1-4.1-9.1-9.1 0-2.8 1.3-5.2 3.2-6.9-1.9-1.7-3.2-4.1-3.2-6.9 0-2.7 1.3-5.2 3.2-6.9-1.9-1.6-3.2-4.1-3.2-6.9 0-2.7 1.3-5.2 3.2-6.8-1.9-1.7-3.2-4.2-3.2-6.9 0-2.8 1.3-5.2 3.2-6.9-1.9-1.7-3.2-4.1-3.2-6.9 0-2.7 1.3-5.2 3.2-6.9-1.9-1.6-3.2-4.1-3.2-6.9 0-5 4.1-9.1 9.1-9.1 2.8 0 5.3 1.3 6.9 3.2 1.7-1.9 4.2-3.2 6.9-3.2 2.8 0 5.2 1.3 6.9 3.2 1.7-1.9 4.1-3.2 6.9-3.2 2.7 0 5.2 1.3 6.9 3.2 1.6-1.9 4.1-3.2 6.8-3.2 2.8 0 5.3 1.3 6.9 3.2 1.7-1.9 4.2-3.2 6.9-3.2 2.8 0 5.2 1.3 6.9 3.2 1.7-1.9 4.1-3.2 6.9-3.2 2.7 0 5.2 1.3 6.9 3.2 1.6-1.9 4.1-3.2 6.8-3.2 5.1 0 9.1 4.1 9.1 9.1 0 2.8-1.2 5.3-3.1 6.9 1.9 1.7 3.1 4.2 3.1 6.9 0 2.8-1.2 5.2-3.1 6.9z"/>
					<path id="&lt;Path&gt;" class="s5" d="m-449.7-98.8v-6.6c8.1-5 17.6-7.9 27.7-7.9 10.2 0 19.7 2.9 27.7 7.9v6.6c0 15.3-12.4 27.7-27.7 27.7-15.3 0-27.7-12.4-27.7-27.7z"/>
					<path id="&lt;Path&gt;" class="s3" d="m-422-79.4c-11.2 0-20.3-9.1-20.3-20.4v-19.2c0-11.3 9.1-20.4 20.3-20.4 11.3 0 20.4 9.1 20.4 20.4v19.2c0 11.3-9.1 20.4-20.4 20.4z"/>
					<path id="&lt;Path&gt;" class="s5" d="m-422-100.6c-23.7 0-43-19.2-43-43v-29c0-23.8 19.3-43 43-43 23.8 0 43.1 19.2 43.1 43v29c0 23.8-19.3 43-43.1 43z"/>
					<g id="&lt;Group&gt;">
						<path id="&lt;Path&gt;" class="s6" d="m-440.7-134.9c-0.5-2 1.1-4 3.2-4h31c2.2 0 3.8 2 3.3 4-1.9 8.7-9.5 15.2-18.8 15.2-9.2 0-16.9-6.5-18.7-15.2z"/>
						<path id="&lt;Path&gt;" class="s7" d="m-435.2-136.8v-2.1h26.5v2.1c0 1.6-1.3 2.9-2.9 2.9h-20.7c-1.6 0-2.9-1.3-2.9-2.9z"/>
						<path id="&lt;Path&gt;" class="s8" d="m-413.4-121.8v0.1c-2.6 1.3-5.5 2-8.6 2-7.3 0-13.7-4.2-16.9-10.2h17.4c4.5 0 8.1 3.6 8.1 8.1z"/>
					</g>
					<path id="&lt;Path&gt;" class="s4" d="m-371.6-193.7c0 5-4 9.1-9.1 9.1-2.7 0-5.2-1.3-6.8-3.2-1.7 1.9-4.2 3.2-6.9 3.2-2.8 0-5.2-1.3-6.9-3.2-1.7 1.9-4.1 3.2-6.9 3.2-2.7 0-5.2-1.3-6.9-3.2-1.6 1.9-4.1 3.2-6.9 3.2-2.7 0-5.2-1.3-6.8-3.2-1.7 1.9-4.2 3.2-6.9 3.2-2.8 0-5.2-1.3-6.9-3.2-1.7 1.9-4.1 3.2-6.9 3.2-2.7 0-5.2-1.3-6.9-3.2-1.6 1.9-4.1 3.2-6.9 3.2-5 0-9.1-4.1-9.1-9.1 0-5.1 4.1-9.1 9.1-9.1q0.7 0 1.3 0.1v-19.3h80.1v19.3q0.6-0.1 1.2-0.1c5.1 0 9.1 4 9.1 9.1z"/>
					<g id="&lt;Group&gt;">
						<path id="&lt;Path&gt;" class="s4" d="m-450.7-169.2h18.6v8.5c0 5.1-4.2 9.3-9.3 9.3-5.2 0-9.3-4.2-9.3-9.3z"/>
						<path id="&lt;Compound Path&gt;" fill-rule="evenodd" class="s9" d="m-424.5-176.8v16.1c0 9.3-7.6 16.9-16.9 16.9-9.3 0-16.9-7.6-16.9-16.9v-16.1zm-7.6 7.6h-18.6v8.5c0 5.1 4.1 9.3 9.3 9.3 5.1 0 9.3-4.2 9.3-9.3z"/>
						<path id="&lt;Path&gt;" class="s4" d="m-411.8-169.2h18.6v8.5c0 5.1-4.2 9.3-9.3 9.3-5.1 0-9.3-4.2-9.3-9.3z"/>
						<path id="&lt;Compound Path&gt;" fill-rule="evenodd" class="s9" d="m-385.6-176.8v16.1c0 9.3-7.6 16.9-16.9 16.9-9.3 0-16.9-7.6-16.9-16.9v-16.1zm-7.6 7.6h-18.6v8.5c0 5.1 4.2 9.3 9.3 9.3 5.1 0 9.3-4.2 9.3-9.3z"/>
						<path id="&lt;Path&gt;" class="s10" d="m-450.7-169.2h3.3l13.7 13.7c-1.7 2.4-4.5 4.1-7.7 4.1-5.1 0-9.3-4.2-9.3-9.3z"/>
						<path id="&lt;Path&gt;" class="s11" d="m-433.7-155.5l5.4 5.4c-3.1 3.8-7.8 6.3-13.1 6.3-9.3 0-16.9-7.6-16.9-16.9v-16.1h3.3l7.6 7.6h-3.3v8.5c0 5.1 4.2 9.3 9.3 9.3 3.2 0 6-1.7 7.7-4.1z"/>
						<path id="&lt;Path&gt;" class="s10" d="m-394.4-156.2l-13-13h14.2v8.5c0 1.6-0.4 3.2-1.2 4.5z"/>
						<path id="&lt;Path&gt;" class="s11" d="m-385.6-160.7c0 3.7-1.2 7.2-3.3 10l-5.5-5.5c0.8-1.3 1.2-2.9 1.2-4.5v-8.5h-14.2l-7.6-7.6h18.8l10.6 10.6z"/>
						<path id="&lt;Path&gt;" class="s9" d="m-430.3-176.8h11.5v7.7h-11.5z"/>
					</g>
				</g>
				<g id="&lt;Group&gt;">
					<path id="&lt;Path&gt;" class="s12" d="m-52.1-146c0 58.5-47.4 105.9-106 105.9-58.5 0-105.9-47.4-105.9-105.9 0-58.6 47.4-106 105.9-106 58.6 0 106 47.4 106 106z"/>
					<g id="&lt;Group&gt;">
						<g id="&lt;Group&gt;">
							<path id="&lt;Path&gt;" class="s13" d="m-105.3-61v6.9c-15.6 8.9-33.6 14-52.8 14-18.9 0-36.6-4.9-52-13.6v-7.3c0-28.9 23.4-52.3 52.4-52.3 28.9 0 52.4 23.4 52.4 52.3z"/>
							<path id="&lt;Path&gt;" class="s14" d="m-119.4-169.9h-76.7c-10.2 0-18.4-8.2-18.4-18.4 0-10.2 8.2-18.5 18.4-18.5h76.7c10.2 0 18.5 8.3 18.5 18.5 0 10.2-8.3 18.4-18.5 18.4z"/>
							<g id="&lt;Group&gt;">
								<path id="&lt;Path&gt;" class="s15" d="m-96.3-147c0 8.8-7.1 16-15.9 16-8.9 0-16-7.2-16-16 0-8.8 7.1-16 16-16 8.8 0 15.9 7.2 15.9 16z"/>
								<path id="&lt;Path&gt;" class="s15" d="m-187.2-147c0 8.8-7.2 16-16 16-8.8 0-16-7.2-16-16 0-8.8 7.2-16 16-16 8.8 0 16 7.2 16 16z"/>
							</g>
							<path id="&lt;Path&gt;" class="s14" d="m-205.4-137.4q-0.1-1.8-0.1-3.6v-32.2c0-26.4 21.4-47.8 47.8-47.8 26.4 0 47.8 21.4 47.8 47.8v32.2q0 1.8-0.2 3.6z"/>
							<path id="&lt;Path&gt;" class="s15" d="m-157.7-79.4c-11.3 0-20.4-9.1-20.4-20.4v-19.2c0-11.3 9.1-20.4 20.4-20.4 11.2 0 20.3 9.1 20.3 20.4v19.2c0 11.3-9.1 20.4-20.3 20.4z"/>
							<path id="&lt;Path&gt;" class="s16" d="m-157.7-100.6c-23.8 0-43-19.2-43-43v-29c0-23.8 19.2-43 43-43 23.7 0 43 19.2 43 43v29c0 23.8-19.3 43-43 43z"/>
							<path id="&lt;Path&gt;" class="s14" d="m-100.2-114.1c0 23.8-19.3 43-43 43h-29c-23.8 0-43.1-19.2-43.1-43 0-10.5 3.8-20.1 10-27.5v-12q0-1.7 0.1-3.5h33 29 33.4q0.1 1.8 0.1 3.5v12.6c6 7.4 9.5 16.7 9.5 26.9z"/>
							<g id="&lt;Group&gt;">
								<path id="&lt;Path&gt;" class="s14" d="m-105.8-212.4c0 10.7-8.7 19.4-19.5 19.4h-33.9c-10.7 0-19.4-8.7-19.4-19.4 0-10.7 8.7-19.4 19.4-19.4h53.4z"/>
								<path id="&lt;Path&gt;" class="s14" d="m-190.2-193c-10.7 0-19.4-8.7-19.4-19.4 0-10.7 8.7-19.4 19.4-19.4 10.8 0 19.4 8.7 19.4 19.4 0 10.7-8.6 19.4-19.4 19.4z"/>
							</g>
							<g id="&lt;Group&gt;">
								<g id="&lt;Group&gt;">
									<path id="&lt;Path&gt;" class="s6" d="m-179.5-141.2c-0.5-2.4 1.3-4.7 3.8-4.7h36c2.4 0 4.3 2.3 3.8 4.7-2.2 10.1-11.1 17.6-21.8 17.6-10.7 0-19.7-7.5-21.8-17.6z"/>
									<path id="&lt;Path&gt;" class="s7" d="m-173.1-143.4v-2.5h30.8v2.5c0 1.9-1.5 3.4-3.4 3.4h-24.1c-1.8 0-3.3-1.5-3.3-3.4z"/>
								</g>
								<path id="&lt;Path&gt;" class="s7" d="m-172.9-129.6h30.4c-4 3.7-9.4 6-15.2 6-5.9 0-11.2-2.3-15.2-6z"/>
							</g>
							<g id="&lt;Group&gt;">
								<g id="&lt;Group&gt;">
									<path id="&lt;Path&gt;" class="s17" d="m-177.6-168.5c-2.3 0-4.3-1.9-4.3-4.3v-5c0-2.4 2-4.3 4.3-4.3 2.4 0 4.3 1.9 4.3 4.3v5c0 2.4-1.9 4.3-4.3 4.3z"/>
									<path id="&lt;Path&gt;" class="s17" d="m-137.6-168.5c-2.4 0-4.3-1.9-4.3-4.3v-5c0-2.4 1.9-4.3 4.3-4.3 2.3 0 4.2 1.9 4.2 4.3v5c0 2.4-1.9 4.3-4.2 4.3z"/>
									<path id="&lt;Compound Path&gt;" fill-rule="evenodd" class="s18" d="m-121.8-183.4v13.5c0 8.8-7.1 16-15.9 16-8.8 0-16-7.2-16-16v-6.8h-8v6.8c0 8.8-7.2 16-16 16-8.8 0-16-7.2-16-16v-13.5zm-46.5 6.6h-18.7v6.9c0 5.2 4.2 9.4 9.3 9.4 5.2 0 9.4-4.2 9.4-9.4zm39.9 0h-18.7v7c0 5.1 4.2 9.3 9.4 9.3 5.1 0 9.3-4.2 9.3-9.3z"/>
								</g>
							</g>
						</g>
						<path id="&lt;Path&gt;" class="s9" d="m-196.2-61.2h36.9c2.6 0 4.7 2.1 4.7 4.7v16.4q-1.7 0-3.5 0c-15.2 0-29.6-3.2-42.7-9v-7.4c0-2.6 2.1-4.7 4.6-4.7z"/>
					</g>
				</g>
				<g id="&lt;Group&gt;">
					<path id="&lt;Path&gt;" class="s19" d="m211.7-146c0 58.5-47.4 105.9-106 105.9-58.5 0-105.9-47.4-105.9-105.9 0-58.6 47.4-106 105.9-106 58.6 0 106 47.4 106 106z"/>
					<g id="&lt;Group&gt;">
						<path id="&lt;Path&gt;" class="s15" d="m79.5-145.1c0 8.9-7.1 16-15.9 16-8.9 0-16-7.1-16-16 0-8.8 7.1-15.9 16-15.9 8.8 0 15.9 7.1 15.9 15.9z"/>
						<path id="&lt;Path&gt;" class="s9" d="m103.6-89.7c-27.4 0-49.6-22.3-49.6-49.7v-33.5c0-27.4 22.2-49.6 49.6-49.6 27.5 0 49.7 22.2 49.7 49.6v33.5c0 27.4-22.2 49.7-49.7 49.7z"/>
						<g id="&lt;Group&gt;">
							<path id="&lt;Path&gt;" class="s20" d="m156-56v3.3c-14.9 8-32.1 12.6-50.3 12.6-19.9 0-38.5-5.5-54.5-15.1v-0.8c0-29 23.5-52.4 52.4-52.4 29 0 52.4 23.4 52.4 52.4z"/>
							<path id="&lt;Path&gt;" class="s21" d="m62.9-88.9c9.6-11.9 24.3-19.5 40.7-19.5 16.4 0 31 7.5 40.6 19.3-4.9 17.8-21.3 30.8-40.7 30.8-19.3 0-35.6-12.9-40.6-30.6z"/>
							<path id="&lt;Path&gt;" class="s16" d="m68.6-95c9.3-8.3 21.6-13.4 35-13.4 13.4 0 25.7 5 34.9 13.3-2.6 17-17.3 29.9-35 29.9-17.6 0-32.2-12.9-34.9-29.8z"/>
						</g>
						<path id="&lt;Path&gt;" class="s9" d="m181.2-120v66.6h-27.8c-15.3 0-27.7-12.4-27.7-27.7v-38.9c0-15.3 12.4-27.8 27.7-27.8 15.4 0 27.8 12.5 27.8 27.8z"/>
						<path id="&lt;Path&gt;" class="s15" d="m103.6-77.4c-11.2 0-20.3-9.2-20.3-20.4v-19.3c0-11.2 9.1-20.3 20.3-20.3 11.3 0 20.4 9.1 20.4 20.3v19.3c0 11.2-9.1 20.4-20.4 20.4z"/>
						<g id="&lt;Group&gt;">
							<path id="&lt;Path&gt;" class="s15" d="m159.7-145.1c0 8.9-7.2 16-16 16-8.8 0-16-7.1-16-16 0-8.8 7.2-15.9 16-15.9 8.8 0 16 7.1 16 15.9z"/>
						</g>
						<path id="&lt;Path&gt;" class="s16" d="m103.6-98.6c-23.7 0-43-19.3-43-43v-29c0-23.8 19.3-43 43-43 23.8 0 43.1 19.2 43.1 43v29c0 23.7-19.3 43-43.1 43z"/>
						<g id="&lt;Group&gt;">
							<path id="&lt;Path&gt;" class="s6" d="m79.9-145.7c-0.6-2.6 1.4-5.1 4.1-5.1h39.2c2.7 0 4.8 2.5 4.2 5.1-2.4 11-12.1 19.2-23.8 19.2-11.6 0-21.4-8.2-23.7-19.2z"/>
							<path id="&lt;Path&gt;" class="s7" d="m86.8-148.1v-2.7h33.6v2.7c0 2-1.6 3.7-3.6 3.7h-26.3c-2 0-3.7-1.7-3.7-3.7z"/>
							<path id="&lt;Path&gt;" class="s8" d="m114.4-129.2v0.2c-3.2 1.6-6.9 2.5-10.8 2.5-9.3 0-17.4-5.3-21.4-12.9h22c5.7 0 10.2 4.6 10.2 10.2z"/>
						</g>
						<g id="&lt;Group&gt;">
							<path id="&lt;Path&gt;" class="s4" d="m82.8-161c-2.2 0-3.9-1.8-3.9-3.9v-4.6c0-2.2 1.7-4 3.9-4 2.1 0 3.9 1.8 3.9 4v4.6c0 2.1-1.8 3.9-3.9 3.9z"/>
							<path id="&lt;Path&gt;" class="s4" d="m124.5-161c-2.2 0-3.9-1.8-3.9-3.9v-4.6c0-2.2 1.7-4 3.9-4 2.2 0 3.9 1.8 3.9 4v4.6c0 2.1-1.7 3.9-3.9 3.9z"/>
						</g>
						<path id="&lt;Path&gt;" class="s9" d="m106.1-215.1v11.3c0 14.4-11.7 26-26 26h-26.1v-37.3c0-14.4 11.7-26.1 26.1-26.1 14.3 0 26 11.7 26 26.1z"/>
						<path id="&lt;Path&gt;" class="s15" d="m110.3-157.1h-13.4c0-3.7 3-6.7 6.7-6.7 3.7 0 6.7 3 6.7 6.7z"/>
						<path id="&lt;Path&gt;" class="s9" d="m127.6-181.7h-6.9c-2.4 0-4.4-2-4.4-4.4 0-2.5 2-4.4 4.4-4.4h6.9c2.5 0 4.5 1.9 4.5 4.4 0 2.4-2 4.4-4.5 4.4z"/>
					</g>
				</g>
			</g>
			<g id="&lt;Group&gt;">
				<g id="&lt;Group&gt;">
					<path id="&lt;Path&gt;" class="s22" d="m-315.9 106.2c0 58.5-47.4 106-105.9 106-58.6 0-106-47.5-106-106 0-58.5 47.4-106 106-106 58.5 0 105.9 47.5 105.9 106z"/>
					<g id="&lt;Group&gt;">
						<g id="&lt;Group&gt;">
							<path id="&lt;Path&gt;" class="s17" d="m-434.4 137c0.7 1 0.9 2.3 0.6 3.6-0.4 1.3-1.3 2.3-2.4 2.9 0.4 1.2 0.3 2.5-0.3 3.7-0.7 1.1-1.8 1.9-3 2.1 0 1.3-0.4 2.5-1.4 3.5-0.9 0.9-2.2 1.4-3.4 1.3-0.3 1.2-1 2.3-2.2 3-1.1 0.7-2.5 0.8-3.7 0.4-0.5 1.1-1.5 2-2.8 2.3-1.3 0.3-2.6 0.1-3.7-0.6-0.8 0.9-2 1.5-3.3 1.5-1.4 0-2.6-0.6-3.4-1.5-1.1 0.7-2.4 0.9-3.7 0.6-1.3-0.3-2.3-1.2-2.8-2.3-1.2 0.4-2.5 0.3-3.7-0.4-1.2-0.7-1.9-1.8-2.2-3-1.2 0.1-2.5-0.4-3.4-1.3-1-1-1.4-2.2-1.3-3.5-1.3-0.2-2.4-1-3-2.1-0.7-1.2-0.8-2.5-0.4-3.7-1.1-0.6-2-1.6-2.4-2.9-0.3-1.3 0-2.6 0.6-3.6-0.9-0.9-1.5-2.1-1.5-3.4 0-1.4 0.6-2.6 1.5-3.4-0.6-1-0.9-2.3-0.6-3.6 0.4-1.3 1.3-2.3 2.4-2.9-0.4-1.2-0.3-2.5 0.4-3.7 0.6-1.1 1.7-1.9 3-2.1-0.1-1.3 0.3-2.6 1.3-3.5 0.9-1 2.2-1.4 3.4-1.3 0.3-1.2 1-2.3 2.2-3 1.2-0.7 2.5-0.8 3.7-0.4 0.5-1.1 1.5-2 2.8-2.3 1.3-0.4 2.6-0.1 3.7 0.6 0.8-1 2-1.5 3.4-1.5 1.3 0 2.5 0.5 3.3 1.5 1.1-0.7 2.4-1 3.7-0.6 1.3 0.3 2.3 1.2 2.8 2.3 1.2-0.4 2.6-0.3 3.7 0.4 1.2 0.7 1.9 1.8 2.2 3 1.2-0.1 2.5 0.3 3.4 1.3 1 0.9 1.4 2.2 1.4 3.5 1.2 0.2 2.3 1 3 2.1 0.6 1.2 0.7 2.5 0.3 3.7 1.1 0.6 2 1.6 2.4 2.9 0.3 1.3 0.1 2.6-0.6 3.6 0.9 0.8 1.5 2 1.5 3.4 0 1.3-0.6 2.5-1.5 3.4z"/>
							<path id="&lt;Path&gt;" class="s17" d="m-354.3 137c0.7 1 1 2.3 0.6 3.6-0.3 1.3-1.2 2.3-2.3 2.9 0.4 1.2 0.3 2.5-0.4 3.7-0.7 1.1-1.8 1.9-3 2.1 0.1 1.3-0.4 2.5-1.3 3.5-1 0.9-2.2 1.4-3.5 1.3-0.2 1.2-1 2.3-2.1 3-1.2 0.7-2.5 0.8-3.7 0.4-0.6 1.1-1.6 2-2.9 2.3-1.3 0.3-2.6 0.1-3.6-0.6-0.9 0.9-2.1 1.5-3.4 1.5-1.3 0-2.5-0.6-3.4-1.5-1 0.7-2.3 0.9-3.6 0.6-1.3-0.3-2.3-1.2-2.9-2.3-1.2 0.4-2.5 0.3-3.7-0.4-1.1-0.7-1.9-1.8-2.1-3-1.3 0.1-2.5-0.4-3.5-1.3-0.9-1-1.4-2.2-1.3-3.5-1.2-0.2-2.3-1-3-2.1-0.7-1.2-0.8-2.5-0.4-3.7-1.1-0.6-2-1.6-2.3-2.9-0.4-1.3-0.1-2.6 0.6-3.6-0.9-0.9-1.5-2.1-1.5-3.4 0-1.4 0.6-2.6 1.5-3.4-0.7-1-1-2.3-0.6-3.6 0.3-1.3 1.2-2.3 2.3-2.9-0.4-1.2-0.3-2.5 0.4-3.7 0.7-1.1 1.8-1.9 3-2.1-0.1-1.3 0.4-2.6 1.3-3.5 1-1 2.2-1.4 3.5-1.3 0.2-1.2 1-2.3 2.1-3 1.2-0.7 2.5-0.8 3.7-0.4 0.6-1.1 1.6-2 2.9-2.3 1.3-0.4 2.6-0.1 3.6 0.6 0.9-1 2.1-1.5 3.4-1.5 1.3 0 2.5 0.5 3.4 1.5 1-0.7 2.3-1 3.6-0.6 1.3 0.3 2.3 1.2 2.9 2.3 1.2-0.4 2.5-0.3 3.7 0.4 1.1 0.7 1.9 1.8 2.1 3 1.3-0.1 2.5 0.3 3.5 1.3 0.9 0.9 1.4 2.2 1.3 3.5 1.2 0.2 2.3 1 3 2.1 0.7 1.2 0.8 2.5 0.4 3.7 1.1 0.6 2 1.6 2.3 2.9 0.4 1.3 0.1 2.6-0.6 3.6 1 0.8 1.5 2 1.5 3.4 0 1.3-0.5 2.5-1.5 3.4z"/>
						</g>
						<g id="&lt;Group&gt;">
							<path id="&lt;Path&gt;" class="s23" d="m-367.6 191.3v5.9c-15.9 9.5-34.4 15-54.2 15-18.3 0-35.5-4.7-50.6-12.8v-8.1c0-28.9 23.5-52.4 52.4-52.4 29 0 52.4 23.5 52.4 52.4z"/>
							<path id="&lt;Path&gt;" class="s24" d="m-452.2 207.7h60.7c-9.6 2.9-19.8 4.5-30.3 4.5-10.6 0-20.8-1.6-30.4-4.5z"/>
							<path id="&lt;Path&gt;" class="s24" d="m-367.6 191.3v5.9q-2.3 1.4-4.7 2.7h-99.1q-0.5-0.3-1-0.5v-8.1q0-5.5 1.1-10.6h102.6q1.1 5.1 1.1 10.6z"/>
							<path id="&lt;Path&gt;" class="s24" d="m-370.9 172.8h-98.1c2.7-7.3 7.1-13.8 12.6-19.1h72.9c5.5 5.3 9.8 11.8 12.6 19.1z"/>
						</g>
						<g id="&lt;Group&gt;">
							<path id="&lt;Path&gt;" class="s0" d="m-449.7 147.3v61.2q-5.3-1.5-10.3-3.4v-57.8z"/>
							<path id="&lt;Path&gt;" class="s0" d="m-379.9 147.3v56.2q-5 2.2-10.3 3.9v-60.1z"/>
						</g>
						<g id="&lt;Group&gt;">
							<g id="&lt;Group&gt;">
								<path id="&lt;Path&gt;" class="s3" d="m-363.9 105.2c0 8.8-7.2 16-16 16-8.8 0-16-7.2-16-16 0-8.8 7.2-16 16-16 8.8 0 16 7.2 16 16z"/>
								<path id="&lt;Path&gt;" class="s3" d="m-444.1 105.2c0 8.8-7.1 16-15.9 16-8.9 0-16-7.2-16-16 0-8.8 7.1-16 16-16 8.8 0 15.9 7.2 15.9 16z"/>
							</g>
							<path id="&lt;Path&gt;" class="s17" d="m-369.1 85.5c1.4 2 1.9 4.6 1.2 7.2-0.7 2.6-2.4 4.6-4.6 5.7 0.8 2.4 0.6 5-0.8 7.3-1.3 2.3-3.5 3.8-5.9 4.3 0.1 2.5-0.7 5-2.6 6.9-1.9 1.9-4.4 2.7-6.9 2.6-0.5 2.4-2 4.6-4.3 6-2.3 1.3-5 1.5-7.3 0.7-1.1 2.2-3.1 4-5.7 4.7-2.6 0.6-5.2 0.1-7.3-1.2-1.6 1.8-4 3-6.7 3-2.6 0-5-1.2-6.7-3-2 1.3-4.7 1.8-7.2 1.2-2.6-0.7-4.6-2.5-5.7-4.7-2.4 0.8-5 0.6-7.3-0.7-2.3-1.4-3.8-3.6-4.3-6-2.5 0.1-5-0.7-6.9-2.6-1.9-1.9-2.8-4.4-2.6-6.9-2.4-0.5-4.6-2-6-4.3-1.3-2.3-1.5-4.9-0.7-7.3-2.2-1.1-4-3.1-4.7-5.7-0.7-2.6-0.1-5.2 1.2-7.2-1.8-1.7-3-4.1-3-6.7 0-2.7 1.2-5.1 3-6.7-1.3-2.1-1.9-4.7-1.2-7.3 0.7-2.6 2.5-4.6 4.7-5.7-0.8-2.3-0.6-5 0.7-7.3 1.4-2.3 3.6-3.8 6-4.3-0.2-2.5 0.7-5 2.6-6.9 1.9-1.9 4.4-2.7 6.9-2.6 0.5-2.4 2-4.6 4.3-5.9 2.3-1.4 4.9-1.6 7.3-0.8 1.1-2.2 3.1-3.9 5.7-4.6 2.5-0.7 5.2-0.2 7.2 1.1 1.7-1.8 4.1-3 6.7-3 2.7 0 5.1 1.2 6.7 3 2.1-1.3 4.7-1.8 7.3-1.1 2.6 0.7 4.6 2.4 5.7 4.6 2.3-0.8 5-0.6 7.3 0.8 2.3 1.3 3.8 3.5 4.3 5.9 2.5-0.1 5 0.7 6.9 2.6 1.9 1.9 2.7 4.4 2.6 6.9 2.4 0.5 4.6 2 5.9 4.3 1.4 2.3 1.6 5 0.8 7.3 2.2 1.1 3.9 3.1 4.6 5.7 0.7 2.6 0.2 5.2-1.2 7.3 1.9 1.6 3.1 4 3.1 6.7 0 2.6-1.2 5-3.1 6.7z"/>
							<path id="&lt;Path&gt;" class="s3" d="m-420 175.3c-11.2 0-20.3-9.1-20.3-20.4v-19.2c0-11.3 9.1-20.4 20.3-20.4 11.3 0 20.4 9.1 20.4 20.4v19.2c0 11.3-9.1 20.4-20.4 20.4z"/>
							<path id="&lt;Path&gt;" class="s5" d="m-420 151.7c-23.7 0-43-19.3-43-43v-29c0-23.8 19.3-43.1 43-43.1 23.8 0 43.1 19.3 43.1 43.1v29c0 23.7-19.3 43-43.1 43z"/>
							<g id="&lt;Group&gt;">
								<path id="&lt;Path&gt;" class="s6" d="m-446.4 110.7c-0.6-3 1.6-5.7 4.6-5.7h43.7c3 0 5.2 2.7 4.6 5.7-2.7 12.2-13.5 21.3-26.5 21.3-12.9 0-23.8-9.1-26.4-21.3z"/>
								<path id="&lt;Path&gt;" class="s7" d="m-438.7 108v-3h37.4v3c0 2.3-1.8 4.1-4 4.1h-29.3c-2.2 0-4.1-1.8-4.1-4.1z"/>
								<path id="&lt;Path&gt;" class="s8" d="m-407.9 129v0.2c-3.7 1.8-7.7 2.8-12.1 2.8-10.3 0-19.3-5.8-23.9-14.4h24.6c6.3 0 11.4 5.1 11.4 11.4z"/>
							</g>
							<path id="&lt;Path&gt;" class="s3" d="m-414.1 100.1h-11.8c0-3.3 2.7-5.9 5.9-5.9 3.3 0 5.9 2.6 5.9 5.9z"/>
							<path id="&lt;Path&gt;" class="s17" d="m-368 64.2q-0.7 0.6-1.5 1.1c-2 1.2-4.4 1.3-6.5 0.6-1 2-2.8 3.6-5.1 4.2-2.3 0.6-4.6 0.1-6.5-1.1-1.5 1.7-3.6 2.7-6 2.7-2.4 0-4.5-1-6-2.7-1.8 1.2-4.2 1.7-6.5 1.1-2.3-0.6-4.1-2.2-5.1-4.2-2.1 0.7-4.5 0.6-6.5-0.6-2.1-1.2-3.4-3.2-3.9-5.4-2.2 0.1-4.4-0.6-6.1-2.3-1.7-1.7-2.5-4-2.4-6.2-2.1-0.4-4.1-1.7-5.3-3.8-1.2-2.1-1.4-4.5-0.7-6.6-1.9-1-3.5-2.8-4.1-5.1-0.5-1.6-0.4-3.2 0.2-4.7q0.2 0 0.4 0.1c1.2-2.2 3.2-3.9 5.7-4.6 2.6-0.7 5.2-0.2 7.3 1.1 1.6-1.8 4-3 6.7-3 2.7 0 5.1 1.2 6.7 3 2.1-1.3 4.7-1.8 7.3-1.1 2.5 0.7 4.5 2.4 5.7 4.6 2.3-0.8 5-0.6 7.3 0.8 2.3 1.3 3.8 3.5 4.3 5.9 2.4-0.1 5 0.7 6.8 2.6 1.9 1.9 2.8 4.4 2.6 6.9 2.5 0.5 4.7 2 6 4.3 1.3 2.3 1.5 5 0.8 7.3 2 1 3.6 2.8 4.4 5.1z"/>
							<g id="&lt;Group&gt;">
								<path id="&lt;Path&gt;" class="s4" d="m-450.5 92.2c0.1-3.8 3.2-6.8 6.9-6.8 3.8 0 6.8 3 6.9 6.8z"/>
								<path id="&lt;Path&gt;" class="s4" d="m-403.3 92.2c0.1-3.8 3.2-6.8 6.9-6.8 3.8 0 6.9 3 6.9 6.8z"/>
							</g>
						</g>
						<g id="&lt;Group&gt;">
							<path id="&lt;Path&gt;" class="s9" d="m-367.5 125.3c-1.8 1.8-4.8 1.8-6.6 0-1.9-1.8-1.9-4.8 0-6.7l3.3-3.3 3.3 3.3c1.9 1.9 1.9 4.9 0 6.7z"/>
							<path id="&lt;Path&gt;" class="s9" d="m-465.8 125.3c-1.9 1.8-4.8 1.8-6.7 0-1.8-1.8-1.8-4.8 0-6.7l3.4-3.3 3.3 3.3c1.8 1.9 1.8 4.9 0 6.7z"/>
						</g>
					</g>
				</g>
				<g id="&lt;Group&gt;">
					<path id="&lt;Path&gt;" class="s0" d="m-52.1 106.2c0 58.5-47.4 106-106 106-58.5 0-105.9-47.5-105.9-106 0-58.5 47.4-106 105.9-106 58.6 0 106 47.5 106 106z"/>
					<g id="&lt;Group&gt;">
						<g id="&lt;Group&gt;">
							<g id="&lt;Group&gt;">
								<path id="&lt;Path&gt;" class="s2" d="m-105.3 185.4v12.7c-15.6 9-33.6 14.1-52.8 14.1-18.9 0-36.6-5-52-13.7v-13.1c0-28.9 23.4-52.4 52.4-52.4 28.9 0 52.4 23.5 52.4 52.4z"/>
								<path id="&lt;Path&gt;" class="s7" d="m-132 149.7c-0.6 13.7-11.9 24.6-25.7 24.6-13.8 0-25.1-10.9-25.7-24.6z"/>
								<path id="&lt;Path&gt;" class="s7" d="m-184 178.3c-1.3 1.3-3.5 0.3-3.5-1.5v-18c0-16.4 13.3-29.7 29.8-29.7 16.4 0 29.7 13.3 29.7 29.7v18c0 1.8-2.2 2.8-3.4 1.5l-26.3-26.3z"/>
								<path id="&lt;Path&gt;" class="s15" d="m-157.7 166.9c-11.3 0-20.4-9.1-20.4-20.3v-19.3c0-11.2 9.1-20.4 20.4-20.4 11.2 0 20.3 9.2 20.3 20.4v19.3c0 11.2-9.1 20.3-20.3 20.3z"/>
								<g id="&lt;Group&gt;">
									<path id="&lt;Path&gt;" class="s15" d="m-101.7 98.8c0 8.9-7.1 16-16 16-8.8 0-15.9-7.1-15.9-16 0-8.8 7.1-16 15.9-16 8.9 0 16 7.2 16 16z"/>
									<path id="&lt;Path&gt;" class="s15" d="m-181.8 98.8c0 8.9-7.2 16-16 16-8.8 0-16-7.1-16-16 0-8.8 7.2-16 16-16 8.8 0 16 7.2 16 16z"/>
								</g>
								<path id="&lt;Path&gt;" class="s25" d="m-129.4 103.7h-56.7c-15.2 0-27.5-12.3-27.5-27.5 0-15.2 12.3-27.5 27.5-27.5h56.7c15.2 0 27.5 12.3 27.5 27.5 0 15.2-12.3 27.5-27.5 27.5z"/>
								<path id="&lt;Path&gt;" class="s16" d="m-157.7 145.3c-23.8 0-43-19.3-43-43v-29c0-23.8 19.2-43.1 43-43.1 23.7 0 43 19.3 43 43.1v29c0 23.7-19.3 43-43 43z"/>
								<path id="&lt;Path&gt;" class="s26" d="m-148.8 92.7h-17.9v-9.2c0-5 4-9 9-9 4.9 0 8.9 4 8.9 9z"/>
								<g id="&lt;Group&gt;">
									<g id="&lt;Group&gt;">
										<path id="&lt;Path&gt;" class="s27" d="m-160.6 74.2c0 10-8.1 18-18 18-9.9 0-18-8-18-18 0-9.9 8.1-17.9 18-17.9 9.9 0 18 8 18 17.9z"/>
										<path id="&lt;Path&gt;" class="s16" d="m-166.4 74.2c0 6.8-5.5 12.2-12.2 12.2-6.7 0-12.2-5.4-12.2-12.2 0-6.7 5.5-12.1 12.2-12.1 6.7 0 12.2 5.4 12.2 12.1z"/>
										<path id="&lt;Path&gt;" class="s17" d="m-171.1 74.2h-15c0-4.1 3.3-7.5 7.5-7.5 4.2 0 7.5 3.4 7.5 7.5z"/>
									</g>
									<g id="&lt;Group&gt;">
										<path id="&lt;Path&gt;" class="s27" d="m-118.9 74.2c0 10-8 18-18 18-9.9 0-17.9-8-17.9-18 0-9.9 8-17.9 17.9-17.9 10 0 18 8 18 17.9z"/>
										<path id="&lt;Path&gt;" class="s16" d="m-124.7 74.2c0 6.8-5.4 12.2-12.2 12.2-6.7 0-12.1-5.4-12.1-12.2 0-6.7 5.4-12.1 12.1-12.1 6.8 0 12.2 5.4 12.2 12.1z"/>
										<path id="&lt;Path&gt;" class="s17" d="m-129.3 74.2h-15.1c0-4.1 3.4-7.5 7.5-7.5 4.2 0 7.6 3.4 7.6 7.5z"/>
									</g>
									<path id="&lt;Path&gt;" class="s27" d="m-151.9 77.4h-11v-6.3h11z"/>
								</g>
								<g id="&lt;Group&gt;">
									<path id="&lt;Path&gt;" class="s6" d="m-177.8 102.8c-0.3-1.9 1.2-3.7 3.1-3.7h33.9c2 0 3.5 1.8 3.1 3.7-1.7 9.5-10 16.6-20 16.6-10 0-18.3-7.1-20.1-16.6z"/>
									<path id="&lt;Path&gt;" class="s7" d="m-171.8 101.4v-2.3h28.2v2.3c0 1.6-1.4 3-3.1 3h-22c-1.7 0-3.1-1.4-3.1-3z"/>
									<path id="&lt;Path&gt;" class="s8" d="m-148.7 117.2v0.1c-2.7 1.4-5.8 2.1-9 2.1-7.8 0-14.6-4.3-18-10.8h18.4c4.8 0 8.6 3.9 8.6 8.6z"/>
								</g>
								<path id="&lt;Path&gt;" class="s28" d="m-144.4 52.9h-26.6c-2.3 0-4.2-1.9-4.2-4.2 0-2.3 1.9-4.2 4.2-4.2h26.6c2.3 0 4.1 1.9 4.1 4.2 0 2.3-1.8 4.2-4.1 4.2z"/>
							</g>
						</g>
						<g id="&lt;Group&gt;">
							<path id="&lt;Path&gt;" class="s7" d="m-153.1 185.1c0 2.7-2.2 4.9-5 4.9-2.7 0-4.9-2.2-4.9-4.9 0-2.7 2.2-4.9 4.9-4.9 2.8 0 5 2.2 5 4.9z"/>
							<path id="&lt;Path&gt;" class="s7" d="m-153.1 200.9c0 2.7-2.2 4.9-5 4.9-2.7 0-4.9-2.2-4.9-4.9 0-2.8 2.2-5 4.9-5 2.8 0 5 2.2 5 5z"/>
						</g>
					</g>
				</g>
				<g id="&lt;Group&gt;">
					<path id="&lt;Path&gt;" class="s29" d="m211.7 106.2c0 58.5-47.4 106-106 106-58.5 0-105.9-47.5-105.9-106 0-58.5 47.4-106 105.9-106 58.6 0 106 47.5 106 106z"/>
					<g id="&lt;Group&gt;">
						<path id="&lt;Path&gt;" class="s30" d="m158.1 191.8v6.6c-15.5 8.7-33.3 13.8-52.4 13.8-19 0-36.9-5.1-52.4-13.9v-6.5c0-28.9 23.4-52.4 52.4-52.4 28.9 0 52.4 23.5 52.4 52.4z"/>
						<path id="&lt;Path&gt;" class="s5" d="m110.9 180.7v31.3q-2.6 0.2-5.2 0.2-2.8 0-5.6-0.2v-31.3z"/>
						<path id="&lt;Path&gt;" class="s7" d="m133 177.9c-7.4 7.4-18.7 8.5-27.3 3.4-8.6 5.1-19.9 4-27.3-3.4-7.3-7.3-8.5-18.2-3.8-26.8q1.5-2.6 3.8-4.9l27.3-27.3 27.3 27.3q2.3 2.3 3.7 4.9c4.8 8.6 3.5 19.5-3.7 26.8z"/>
						<path id="&lt;Path&gt;" class="s25" d="m105.7 139.9c-25.4 0-46-20.6-46-46v-31c0-25.4 20.6-45.9 46-45.9 25.4 0 45.9 20.5 45.9 45.9v31c0 25.4-20.5 46-45.9 46z"/>
						<g id="&lt;Group&gt;">
							<path id="&lt;Path&gt;" class="s15" d="m161.7 110.6c0 8.9-7.1 16-16 16-8.8 0-15.9-7.1-15.9-16 0-8.8 7.1-15.9 15.9-15.9 8.9 0 16 7.1 16 15.9z"/>
							<path id="&lt;Path&gt;" class="s15" d="m81.6 110.6c0 8.9-7.2 16-16 16-8.8 0-16-7.1-16-16 0-8.8 7.2-15.9 16-15.9 8.8 0 16 7.1 16 15.9z"/>
						</g>
						<path id="&lt;Path&gt;" class="s25" d="m140.7 113.5h-70c-18.4 0-33.2-14.8-33.2-33.1 0-18.3 14.8-33.2 33.2-33.2h70c18.3 0 33.1 14.9 33.1 33.2 0 18.3-14.8 33.1-33.1 33.1z"/>
						<path id="&lt;Path&gt;" class="s15" d="m105.7 173.3c-11.3 0-20.4-9.1-20.4-20.3v-19.3c0-11.2 9.1-20.4 20.4-20.4 11.2 0 20.3 9.2 20.3 20.4v19.3c0 11.2-9.1 20.3-20.3 20.3z"/>
						<path id="&lt;Path&gt;" class="s16" d="m105.7 157.1c-23.8 0-43.1-19.3-43.1-43v-33.8c0-13.8 11.2-25 25-25h36.1c13.8 0 25 11.2 25 25v33.8c0 23.7-19.3 43-43 43z"/>
						<g id="&lt;Group&gt;">
							<path id="&lt;Path&gt;" class="s6" d="m89.8 116.3c-0.4-1.8 1-3.5 2.8-3.5h26.2c1.8 0 3.1 1.7 2.7 3.5-1.5 7.3-8 12.8-15.8 12.8-7.8 0-14.3-5.5-15.9-12.8z"/>
							<path id="&lt;Path&gt;" class="s7" d="m94.5 114.7v-1.9h22.4v1.9c0 1.3-1.1 2.4-2.4 2.4h-17.6c-1.4 0-2.4-1.1-2.4-2.4z"/>
							<path id="&lt;Path&gt;" class="s8" d="m112.9 127.3v0.1c-2.2 1.1-4.6 1.7-7.2 1.7-6.2 0-11.6-3.5-14.4-8.7h14.8c3.7 0 6.8 3.1 6.8 6.9z"/>
						</g>
						<path id="&lt;Path&gt;" class="s15" d="m111.6 108.4h-11.8c0-3.2 2.6-5.9 5.9-5.9 3.2 0 5.9 2.7 5.9 5.9z"/>
						<g id="&lt;Group&gt;">
							<path id="&lt;Compound Path&gt;" fill-rule="evenodd" class="s14" d="m84.5 110.9c-9.5 0-17.2-7.7-17.2-17.2v-14.7h34.5v14.7c0 9.5-7.8 17.2-17.3 17.2zm-11.1-25.8v8.6c0 6.1 5 11.1 11.1 11.1 6.2 0 11.1-5 11.1-11.1v-8.6z"/>
							<path id="&lt;Compound Path&gt;" fill-rule="evenodd" class="s14" d="m126.8 110.9c-9.5 0-17.2-7.7-17.2-17.2v-14.7h34.4v14.7c0 9.5-7.7 17.2-17.2 17.2zm-11.1-25.8v8.6c0 6.1 5 11.1 11.1 11.1 6.1 0 11.1-5 11.1-11.1v-8.6z"/>
							<path id="&lt;Path&gt;" class="s14" d="m98.7 79h17v6.1h-17z"/>
						</g>
						<g id="&lt;Group&gt;">
							<path id="&lt;Path&gt;" class="s4" d="m78.9 96.6c0-3.1 2.6-5.6 5.7-5.6 3.1 0 5.7 2.5 5.7 5.6z"/>
							<path id="&lt;Path&gt;" class="s4" d="m121 96.6c0.1-3.1 2.6-5.6 5.8-5.6 3.1 0 5.6 2.5 5.7 5.6z"/>
						</g>
						<path id="&lt;Path&gt;" class="s28" d="m118.9 73.5h-26.5c-2.3 0-4.2-1.9-4.2-4.2 0-2.3 1.9-4.2 4.2-4.2h26.5c2.4 0 4.2 1.9 4.2 4.2 0 2.3-1.8 4.2-4.2 4.2z"/>
					</g>
				</g>
			</g>
		</g>
		<g id="&lt;Group&gt;">
			<g id="&lt;Group&gt;">
				<g id="&lt;Group&gt;">
					<path id="&lt;Path&gt;" class="s1" d="m-137.3 413.4q0-0.1 0-0.2v-25.8c0-21.1 17.1-38.2 38.3-38.2 21.1 0 38.2 17.1 38.2 38.2v25.8q0 0.1 0 0.2z"/>
					<path id="&lt;Path&gt;" class="s2" d="m-137.3 403.4h76.5v9.8q0 0.1 0 0.2h-76.5q0-0.1 0-0.2z"/>
					<path id="&lt;Path&gt;" class="s2" d="m-137 383.3h76q0.2 2 0.2 4.1v5.9h-76.5v-5.9q0-2.1 0.3-4.1z"/>
					<path id="&lt;Path&gt;" class="s2" d="m-63.5 373.2h-71c1.4-3.6 3.4-7 5.9-10h59.1c2.5 3 4.5 6.4 6 10z"/>
				</g>
				<g id="&lt;Group&gt;">
					<path id="&lt;Path&gt;" class="s3" d="m-58.1 320c0 6.4-5.3 11.6-11.7 11.6-6.4 0-11.7-5.2-11.7-11.6 0-6.5 5.3-11.7 11.7-11.7 6.4 0 11.7 5.2 11.7 11.7z"/>
					<path id="&lt;Path&gt;" class="s3" d="m-116.6 320c0 6.4-5.2 11.6-11.7 11.6-6.4 0-11.6-5.2-11.6-11.6 0-6.5 5.2-11.7 11.6-11.7 6.5 0 11.7 5.2 11.7 11.7z"/>
				</g>
				<path id="&lt;Path&gt;" class="s4" d="m-64.6 285.2c1.4 1.2 2.3 3 2.3 5 0 2-0.9 3.8-2.3 5 1.4 1.2 2.3 3 2.3 5 0 2-0.9 3.8-2.3 5.1 1.4 1.2 2.3 3 2.3 5 0 2-0.9 3.8-2.3 5 1.4 1.2 2.3 3 2.3 5 0 3.7-2.9 6.7-6.6 6.7-2 0-3.8-0.9-5-2.3-1.2 1.4-3 2.3-5 2.3-2.1 0-3.9-0.9-5.1-2.3-1.2 1.4-3 2.3-5 2.3-2 0-3.8-0.9-5-2.3-1.2 1.4-3 2.3-5 2.3-2 0-3.8-0.9-5.1-2.3-1.2 1.4-3 2.3-5 2.3-2 0-3.8-0.9-5-2.3-1.2 1.4-3 2.3-5 2.3-2 0-3.8-0.9-5.1-2.3-1.2 1.4-3 2.3-5 2.3-3.6 0-6.6-3-6.6-6.7 0-2 0.9-3.8 2.3-5-1.4-1.2-2.3-3-2.3-5 0-2 0.9-3.8 2.3-5-1.4-1.3-2.3-3.1-2.3-5.1 0-2 0.9-3.8 2.3-5-1.4-1.2-2.3-3-2.3-5 0-2 0.9-3.8 2.3-5-1.4-1.3-2.3-3.1-2.3-5.1 0-2 0.9-3.8 2.3-5-1.4-1.2-2.3-3-2.3-5 0-3.7 3-6.7 6.6-6.7 2 0 3.8 0.9 5 2.4 1.3-1.5 3.1-2.4 5.1-2.4 2 0 3.8 0.9 5 2.4 1.2-1.5 3-2.4 5-2.4 2 0 3.8 0.9 5 2.4 1.3-1.5 3.1-2.4 5.1-2.4 2 0 3.8 0.9 5 2.4 1.2-1.5 3-2.4 5-2.4 2 0 3.8 0.9 5 2.4 1.2-1.5 3-2.4 5.1-2.4 2 0 3.8 0.9 5 2.4 1.2-1.5 3-2.4 5-2.4 3.7 0 6.6 3 6.6 6.7 0 2-0.9 3.8-2.3 5 1.4 1.2 2.3 3 2.3 5 0 2-0.9 3.8-2.3 5.1z"/>
				<path id="&lt;Path&gt;" class="s5" d="m-119.3 359.8v-4.8c5.9-3.7 12.8-5.8 20.3-5.8 7.4 0 14.3 2.1 20.2 5.8v4.8c0 11.2-9.1 20.3-20.2 20.3-11.2 0-20.3-9.1-20.3-20.3z"/>
				<path id="&lt;Path&gt;" class="s3" d="m-99 374c-8.2 0-14.9-6.7-14.9-14.9v-14.1c0-8.2 6.7-14.8 14.9-14.8 8.2 0 14.8 6.6 14.8 14.8v14.1c0 8.2-6.6 14.9-14.8 14.9z"/>
				<path id="&lt;Path&gt;" class="s5" d="m-99 358.5c-17.4 0-31.4-14-31.4-31.4v-21.1c0-17.4 14-31.4 31.4-31.4 17.3 0 31.4 14 31.4 31.4v21.1c0 17.4-14.1 31.4-31.4 31.4z"/>
				<g id="&lt;Group&gt;">
					<path id="&lt;Path&gt;" class="s6" d="m-112.7 333.5c-0.4-1.5 0.8-3 2.4-3h22.6c1.5 0 2.7 1.5 2.4 3-1.4 6.3-7 11-13.7 11-6.8 0-12.4-4.7-13.7-11z"/>
					<path id="&lt;Path&gt;" class="s7" d="m-108.7 332.1v-1.6h19.3v1.6c0 1.2-0.9 2.1-2.1 2.1h-15.1c-1.2 0-2.1-0.9-2.1-2.1z"/>
					<path id="&lt;Path&gt;" class="s8" d="m-92.8 343v0.1c-1.9 0.9-4 1.4-6.2 1.4-5.4 0-10.1-3-12.4-7.4h12.7c3.2 0 5.9 2.6 5.9 5.9z"/>
				</g>
				<path id="&lt;Path&gt;" class="s4" d="m-62.3 290.5c0 3.7-2.9 6.7-6.6 6.7-2 0-3.8-0.9-5-2.3-1.2 1.4-3 2.3-5 2.3-2.1 0-3.9-0.9-5.1-2.3-1.2 1.4-3 2.3-5 2.3-2 0-3.8-0.9-5-2.3-1.2 1.4-3 2.3-5 2.3-2 0-3.8-0.9-5.1-2.3-1.2 1.4-3 2.3-5 2.3-2 0-3.8-0.9-5-2.3-1.2 1.4-3 2.3-5 2.3-2 0-3.8-0.9-5.1-2.3-1.2 1.4-3 2.3-5 2.3-3.6 0-6.6-3-6.6-6.7 0-3.6 3-6.6 6.6-6.6q0.5 0 0.9 0.1v-14.1h58.5v14.1q0.4-0.1 0.9-0.1c3.7 0 6.6 3 6.6 6.6z"/>
				<g id="&lt;Group&gt;">
					<path id="&lt;Path&gt;" class="s4" d="m-120 308.5h13.5v6.1c0 3.8-3 6.8-6.7 6.8-3.8 0-6.8-3-6.8-6.8z"/>
					<path id="&lt;Compound Path&gt;" fill-rule="evenodd" class="s9" d="m-100.9 302.9v11.7c0 6.8-5.5 12.4-12.3 12.4-6.8 0-12.4-5.6-12.4-12.4v-11.7zm-5.5 5.6h-13.6v6.1c0 3.8 3 6.8 6.8 6.8 3.7 0 6.8-3 6.8-6.8z"/>
					<path id="&lt;Path&gt;" class="s4" d="m-91.6 308.5h13.6v6.1c0 3.8-3.1 6.8-6.8 6.8-3.8 0-6.8-3-6.8-6.8z"/>
					<path id="&lt;Compound Path&gt;" fill-rule="evenodd" class="s9" d="m-72.5 302.9v11.7c0 6.8-5.5 12.4-12.3 12.4-6.8 0-12.4-5.6-12.4-12.4v-11.7zm-5.5 5.6h-13.6v6.1c0 3.8 3 6.8 6.8 6.8 3.7 0 6.8-3 6.8-6.8z"/>
					<path id="&lt;Path&gt;" class="s10" d="m-120 308.5h2.4l10 9.9c-1.3 1.8-3.3 3-5.6 3-3.8 0-6.8-3-6.8-6.8z"/>
					<path id="&lt;Path&gt;" class="s11" d="m-107.6 318.4l3.9 4c-2.2 2.8-5.7 4.6-9.5 4.6-6.8 0-12.4-5.6-12.4-12.4v-11.7h2.5l5.5 5.6h-2.4v6.1c0 3.8 3 6.8 6.8 6.8 2.3 0 4.3-1.2 5.6-3z"/>
					<path id="&lt;Path&gt;" class="s10" d="m-78.9 318l-9.5-9.5h10.4v6.1c0 1.2-0.4 2.4-0.9 3.4z"/>
					<path id="&lt;Path&gt;" class="s11" d="m-72.5 314.6c0 2.8-0.9 5.3-2.4 7.4l-4-4c0.5-1 0.9-2.2 0.9-3.4v-6.1h-10.4l-5.6-5.6h13.8l7.7 7.8z"/>
					<path id="&lt;Path&gt;" class="s9" d="m-105.1 302.9h8.4v5.6h-8.4z"/>
				</g>
			</g>
			<g id="&lt;Group&gt;">
				<g id="&lt;Group&gt;">
					<g id="&lt;Group&gt;">
						<path id="&lt;Path&gt;" class="s13" d="m-14.1 413.4q0-0.1 0-0.2v-25.8c0-21.1 17.2-38.2 38.3-38.2 21.1 0 38.2 17.1 38.2 38.2v25.8q0 0.1 0 0.2z"/>
					</g>
					<path id="&lt;Path&gt;" class="s14" d="m52.2 307.9h-56c-7.4 0-13.5-6-13.5-13.4 0-7.4 6.1-13.5 13.5-13.5h56c7.4 0 13.4 6.1 13.4 13.5 0 7.4-6 13.4-13.4 13.4z"/>
					<g id="&lt;Group&gt;">
						<path id="&lt;Path&gt;" class="s15" d="m69 324.6c0 6.5-5.2 11.7-11.6 11.7-6.5 0-11.7-5.2-11.7-11.7 0-6.4 5.2-11.6 11.7-11.6 6.4 0 11.6 5.2 11.6 11.6z"/>
						<path id="&lt;Path&gt;" class="s15" d="m2.6 324.6c0 6.5-5.2 11.7-11.6 11.7-6.5 0-11.7-5.2-11.7-11.7 0-6.4 5.2-11.6 11.7-11.6 6.4 0 11.6 5.2 11.6 11.6z"/>
					</g>
					<path id="&lt;Path&gt;" class="s14" d="m-10.6 331.6q-0.1-1.3-0.1-2.6v-23.5c0-19.3 15.6-34.9 34.9-34.9 19.2 0 34.9 15.6 34.9 34.9v23.5q0 1.3-0.1 2.6z"/>
					<path id="&lt;Path&gt;" class="s15" d="m24.2 374c-8.2 0-14.9-6.7-14.9-14.9v-14.1c0-8.2 6.7-14.8 14.9-14.8 8.2 0 14.8 6.6 14.8 14.8v14.1c0 8.2-6.6 14.9-14.8 14.9z"/>
					<path id="&lt;Path&gt;" class="s16" d="m24.2 358.5c-17.4 0-31.4-14-31.4-31.4v-21.1c0-17.4 14-31.4 31.4-31.4 17.3 0 31.4 14 31.4 31.4v21.1c0 17.4-14.1 31.4-31.4 31.4z"/>
					<path id="&lt;Path&gt;" class="s14" d="m66.2 348.7c0 17.3-14.1 31.4-31.4 31.4h-21.2c-17.3 0-31.4-14.1-31.4-31.4 0-7.7 2.7-14.7 7.3-20.1v-8.7q0-1.3 0.1-2.6h24 21.2 24.3q0.1 1.3 0.1 2.6v9.1c4.4 5.4 7 12.2 7 19.7z"/>
					<g id="&lt;Group&gt;">
						<path id="&lt;Path&gt;" class="s14" d="m62 276.9c0 7.8-6.3 14.2-14.1 14.2h-24.8c-7.8 0-14.2-6.4-14.2-14.2 0-7.8 6.4-14.2 14.2-14.2h38.9z"/>
						<path id="&lt;Path&gt;" class="s14" d="m0.5 291.1c-7.8 0-14.2-6.4-14.2-14.2 0-7.8 6.4-14.2 14.2-14.2 7.8 0 14.2 6.4 14.2 14.2 0 7.8-6.4 14.2-14.2 14.2z"/>
					</g>
					<g id="&lt;Group&gt;">
						<g id="&lt;Group&gt;">
							<path id="&lt;Path&gt;" class="s6" d="m8.3 328.9c-0.4-1.8 0.9-3.4 2.7-3.4h26.3c1.8 0 3.2 1.6 2.8 3.4-1.6 7.3-8.1 12.8-15.9 12.8-7.8 0-14.4-5.5-15.9-12.8z"/>
							<path id="&lt;Path&gt;" class="s7" d="m12.9 327.3v-1.8h22.5v1.8c0 1.3-1.1 2.4-2.4 2.4h-17.6c-1.4 0-2.5-1.1-2.5-2.4z"/>
						</g>
						<path id="&lt;Path&gt;" class="s7" d="m13.1 337.4h22.2c-2.9 2.7-6.8 4.3-11.1 4.3-4.3 0-8.2-1.6-11.1-4.3z"/>
					</g>
					<g id="&lt;Group&gt;">
						<g id="&lt;Group&gt;">
							<path id="&lt;Path&gt;" class="s17" d="m9.7 308.9c-1.7 0-3.1-1.4-3.1-3.1v-3.6c0-1.8 1.4-3.2 3.1-3.2 1.7 0 3.1 1.4 3.1 3.2v3.6c0 1.7-1.4 3.1-3.1 3.1z"/>
							<path id="&lt;Path&gt;" class="s17" d="m38.8 308.9c-1.7 0-3.1-1.4-3.1-3.1v-3.6c0-1.8 1.4-3.2 3.1-3.2 1.8 0 3.2 1.4 3.2 3.2v3.6c0 1.7-1.4 3.1-3.2 3.1z"/>
							<path id="&lt;Compound Path&gt;" fill-rule="evenodd" class="s18" d="m50.4 298.1v9.8c0 6.5-5.2 11.7-11.6 11.7-6.5 0-11.7-5.2-11.7-11.7v-4.9h-5.9v4.9c0 6.5-5.2 11.7-11.6 11.7-6.4 0-11.6-5.2-11.6-11.7v-9.8zm-34 4.8h-13.7v5c0 3.8 3.1 6.9 6.8 6.9 3.8 0 6.9-3.1 6.9-6.9zm29.1 0h-13.6v5.1c0 3.8 3 6.8 6.8 6.8 3.8 0 6.8-3 6.8-6.8z"/>
						</g>
					</g>
				</g>
				<path id="&lt;Path&gt;" class="s9" d="m26.4 403.4h-33.7v-16.2h33.7z"/>
			</g>
			<g id="&lt;Group&gt;">
				<path id="&lt;Path&gt;" class="s15" d="m129.1 322.5c0 6.4-5.2 11.6-11.6 11.6-6.5 0-11.7-5.2-11.7-11.6 0-6.5 5.2-11.7 11.7-11.7 6.4 0 11.6 5.2 11.6 11.7z"/>
				<path id="&lt;Path&gt;" class="s9" d="m146.7 362.8c-20 0-36.2-16.2-36.2-36.2v-24.4c0-20 16.2-36.2 36.2-36.2 20 0 36.3 16.2 36.3 36.2v24.4c0 20-16.3 36.2-36.3 36.2z"/>
				<g id="&lt;Group&gt;">
					<path id="&lt;Path&gt;" class="s20" d="m108.5 413.4q0-0.1 0-0.2v-25.8c0-21.1 17.1-38.2 38.2-38.2 21.1 0 38.3 17.1 38.3 38.2v25.8q0 0.1 0 0.2z"/>
					<path id="&lt;Path&gt;" class="s21" d="m117 363.4c7-8.6 17.7-14.2 29.7-14.2 12 0 22.7 5.5 29.7 14.1-3.7 13-15.6 22.5-29.7 22.5-14.1 0-26-9.5-29.7-22.4z"/>
					<path id="&lt;Path&gt;" class="s16" d="m121.1 359c6.8-6.1 15.8-9.8 25.6-9.8 9.8 0 18.7 3.7 25.5 9.7-1.9 12.4-12.6 21.9-25.5 21.9-12.9 0-23.6-9.4-25.6-21.8z"/>
				</g>
				<path id="&lt;Path&gt;" class="s9" d="m203.3 340.8v48.6h-20.2c-11.2 0-20.3-9.1-20.3-20.3v-28.3c0-11.2 9.1-20.3 20.3-20.3 11.2 0 20.2 9.1 20.2 20.3z"/>
				<path id="&lt;Path&gt;" class="s15" d="m146.7 371.8c-8.2 0-14.8-6.6-14.8-14.8v-14.1c0-8.2 6.6-14.9 14.8-14.9 8.2 0 14.9 6.7 14.9 14.9v14.1c0 8.2-6.7 14.8-14.9 14.8z"/>
				<g id="&lt;Group&gt;">
					<path id="&lt;Path&gt;" class="s15" d="m187.6 322.5c0 6.4-5.2 11.6-11.6 11.6-6.5 0-11.7-5.2-11.7-11.6 0-6.5 5.2-11.7 11.7-11.7 6.4 0 11.6 5.2 11.6 11.7z"/>
				</g>
				<path id="&lt;Path&gt;" class="s16" d="m146.7 356.4c-17.3 0-31.4-14.1-31.4-31.4v-21.2c0-17.3 14.1-31.4 31.4-31.4 17.4 0 31.4 14.1 31.4 31.4v21.2c0 17.3-14 31.4-31.4 31.4z"/>
				<g id="&lt;Group&gt;">
					<path id="&lt;Path&gt;" class="s6" d="m129.4 322c-0.4-1.9 1-3.7 3-3.7h28.6c2 0 3.5 1.8 3.1 3.7-1.8 8-8.9 14-17.4 14-8.5 0-15.6-6-17.3-14z"/>
					<path id="&lt;Path&gt;" class="s7" d="m134.5 320.3v-2h24.5v2c0 1.4-1.2 2.6-2.7 2.6h-19.2c-1.4 0-2.6-1.2-2.6-2.6z"/>
					<path id="&lt;Path&gt;" class="s8" d="m154.6 334.1v0.1c-2.4 1.1-5 1.8-7.9 1.8-6.8 0-12.7-3.8-15.6-9.4h16c4.2 0 7.5 3.3 7.5 7.5z"/>
				</g>
				<g id="&lt;Group&gt;">
					<path id="&lt;Path&gt;" class="s4" d="m131.5 310.8c-1.6 0-2.8-1.3-2.8-2.8v-3.4c0-1.6 1.2-2.8 2.8-2.8 1.6 0 2.9 1.2 2.9 2.8v3.4c0 1.5-1.3 2.8-2.9 2.8z"/>
					<path id="&lt;Path&gt;" class="s4" d="m162 310.8c-1.6 0-2.9-1.3-2.9-2.8v-3.4c0-1.6 1.3-2.8 2.9-2.8 1.5 0 2.8 1.2 2.8 2.8v3.4c0 1.5-1.3 2.8-2.8 2.8z"/>
				</g>
				<path id="&lt;Path&gt;" class="s9" d="m148.5 271.3v8.3c0 10.5-8.5 19-19 19h-19v-27.3c0-10.5 8.5-19 19-19 10.5 0 19 8.5 19 19z"/>
				<path id="&lt;Path&gt;" class="s15" d="m151.6 313.7h-9.8c0-2.7 2.2-4.9 4.9-4.9 2.7 0 4.9 2.2 4.9 4.9z"/>
				<path id="&lt;Path&gt;" class="s9" d="m164.2 295.7h-5c-1.8 0-3.2-1.4-3.2-3.2 0-1.8 1.4-3.2 3.2-3.2h5c1.8 0 3.3 1.4 3.3 3.2 0 1.8-1.5 3.2-3.3 3.2z"/>
			</g>
			<g id="&lt;Group&gt;">
				<g id="&lt;Group&gt;">
					<g id="&lt;Group&gt;">
						<path id="&lt;Path&gt;" class="s17" d="m-481 347.8c0.5 0.7 0.7 1.7 0.5 2.7-0.3 0.9-0.9 1.6-1.7 2 0.3 0.9 0.2 1.9-0.3 2.7-0.5 0.9-1.3 1.4-2.2 1.6 0.1 0.9-0.3 1.8-0.9 2.5-0.7 0.7-1.7 1-2.6 1-0.2 0.9-0.7 1.7-1.5 2.2-0.9 0.5-1.9 0.5-2.7 0.2-0.4 0.9-1.2 1.5-2.1 1.8-1 0.2-1.9 0-2.7-0.5-0.6 0.7-1.5 1.1-2.4 1.1-1 0-1.9-0.4-2.5-1.1-0.8 0.5-1.7 0.7-2.7 0.5-0.9-0.3-1.7-0.9-2.1-1.8-0.8 0.3-1.8 0.3-2.7-0.2-0.8-0.5-1.3-1.3-1.5-2.2-0.9 0-1.9-0.3-2.6-1-0.6-0.7-1-1.6-0.9-2.5-0.9-0.2-1.7-0.7-2.2-1.6-0.5-0.8-0.6-1.8-0.3-2.7-0.8-0.4-1.4-1.1-1.7-2-0.2-1 0-2 0.5-2.7-0.7-0.6-1.2-1.5-1.2-2.5 0-1 0.5-1.8 1.2-2.4-0.5-0.8-0.7-1.8-0.5-2.7 0.3-0.9 0.9-1.7 1.7-2.1-0.3-0.9-0.2-1.8 0.3-2.7 0.5-0.8 1.3-1.4 2.2-1.6-0.1-0.9 0.3-1.8 0.9-2.5 0.7-0.7 1.7-1 2.6-0.9 0.2-0.9 0.7-1.7 1.5-2.2 0.9-0.5 1.9-0.6 2.7-0.3 0.4-0.8 1.2-1.4 2.1-1.7 1-0.3 1.9-0.1 2.7 0.4 0.6-0.6 1.5-1.1 2.5-1.1 0.9 0 1.8 0.5 2.4 1.1 0.8-0.5 1.7-0.7 2.7-0.4 0.9 0.3 1.7 0.9 2.1 1.7 0.8-0.3 1.8-0.2 2.7 0.3 0.8 0.5 1.3 1.3 1.5 2.2 0.9-0.1 1.9 0.2 2.6 0.9 0.6 0.7 1 1.6 0.9 2.5 0.9 0.2 1.7 0.8 2.2 1.6 0.5 0.9 0.6 1.8 0.3 2.7 0.8 0.4 1.4 1.2 1.7 2.1 0.2 0.9 0 1.9-0.5 2.7 0.7 0.6 1.2 1.4 1.2 2.4 0 1-0.5 1.9-1.2 2.5z"/>
						<path id="&lt;Path&gt;" class="s17" d="m-422.5 347.8c0.5 0.7 0.7 1.7 0.5 2.7-0.3 0.9-0.9 1.6-1.7 2 0.2 0.9 0.2 1.9-0.3 2.7-0.5 0.9-1.3 1.4-2.2 1.6 0.1 0.9-0.3 1.8-1 2.5-0.7 0.7-1.6 1-2.5 1-0.2 0.9-0.7 1.7-1.6 2.2-0.8 0.5-1.8 0.5-2.6 0.2-0.5 0.9-1.2 1.5-2.1 1.8-1 0.2-1.9 0-2.7-0.5-0.6 0.7-1.5 1.1-2.5 1.1-0.9 0-1.8-0.4-2.4-1.1-0.8 0.5-1.7 0.7-2.7 0.5-0.9-0.3-1.7-0.9-2.1-1.8-0.8 0.3-1.8 0.3-2.7-0.2-0.8-0.5-1.4-1.3-1.5-2.2-0.9 0-1.9-0.3-2.6-1-0.7-0.7-1-1.6-0.9-2.5-0.9-0.2-1.7-0.7-2.2-1.6-0.5-0.8-0.6-1.8-0.3-2.7-0.8-0.4-1.4-1.1-1.7-2-0.2-1-0.1-2 0.4-2.7-0.6-0.6-1.1-1.5-1.1-2.5 0-1 0.5-1.8 1.1-2.4-0.5-0.8-0.6-1.8-0.4-2.7 0.3-0.9 0.9-1.7 1.7-2.1-0.3-0.9-0.2-1.8 0.3-2.7 0.5-0.8 1.3-1.4 2.2-1.6-0.1-0.9 0.2-1.8 0.9-2.5 0.7-0.7 1.7-1 2.6-0.9 0.1-0.9 0.7-1.7 1.5-2.2 0.9-0.5 1.9-0.6 2.7-0.3 0.4-0.8 1.2-1.4 2.1-1.7 1-0.3 1.9-0.1 2.7 0.4 0.6-0.6 1.5-1.1 2.4-1.1 1 0 1.9 0.5 2.5 1.1 0.8-0.5 1.7-0.7 2.7-0.4 0.9 0.3 1.6 0.9 2.1 1.7 0.8-0.3 1.8-0.2 2.6 0.3 0.9 0.5 1.4 1.3 1.6 2.2 0.9-0.1 1.8 0.2 2.5 0.9 0.7 0.7 1.1 1.6 1 2.5 0.9 0.2 1.7 0.8 2.2 1.6 0.5 0.9 0.5 1.8 0.3 2.7 0.8 0.4 1.4 1.2 1.7 2.1 0.2 0.9 0 1.9-0.5 2.7 0.7 0.6 1.1 1.4 1.1 2.4 0 1-0.4 1.9-1.1 2.5z"/>
					</g>
					<g id="&lt;Group&gt;">
						<path id="&lt;Path&gt;" class="s23" d="m-508.6 413.4q0-0.1 0-0.2v-25.8c0-21.1 17.1-38.2 38.2-38.2 21.1 0 38.2 17.1 38.2 38.2v25.8q0 0.1 0 0.2z"/>
						<path id="&lt;Path&gt;" class="s24" d="m-508.6 399.4h76.4v13.8q0 0.1 0 0.2h-76.4q0-0.1 0-0.2z"/>
						<path id="&lt;Path&gt;" class="s24" d="m-507.9 379.7h74.9q0.8 3.8 0.8 7.7v6.3h-76.4v-6.3q0-3.9 0.7-7.7z"/>
						<path id="&lt;Path&gt;" class="s24" d="m-434.6 374h-71.6c2-5.4 5.2-10.1 9.2-14h53.2c4 3.9 7.2 8.6 9.2 14z"/>
					</g>
					<g id="&lt;Group&gt;">
						<path id="&lt;Path&gt;" class="s0" d="m-492.1 413.4h-7.5v-58.1h7.5z"/>
						<path id="&lt;Path&gt;" class="s0" d="m-441.2 413.4h-7.5v-58.1h7.5z"/>
					</g>
					<g id="&lt;Group&gt;">
						<g id="&lt;Group&gt;">
							<path id="&lt;Path&gt;" class="s3" d="m-429.5 324.6c0 6.5-5.2 11.7-11.7 11.7-6.4 0-11.6-5.2-11.6-11.7 0-6.4 5.2-11.6 11.6-11.6 6.5 0 11.7 5.2 11.7 11.6z"/>
							<path id="&lt;Path&gt;" class="s3" d="m-488 324.6c0 6.5-5.2 11.7-11.6 11.7-6.5 0-11.7-5.2-11.7-11.7 0-6.4 5.2-11.6 11.7-11.6 6.4 0 11.6 5.2 11.6 11.6z"/>
						</g>
						<path id="&lt;Path&gt;" class="s17" d="m-433.2 310.2c0.9 1.5 1.3 3.4 0.8 5.3-0.5 1.9-1.8 3.3-3.4 4.2 0.6 1.7 0.5 3.6-0.5 5.3-1 1.7-2.6 2.8-4.4 3.1 0.1 1.8-0.5 3.7-1.9 5-1.4 1.4-3.2 2.1-5 2-0.4 1.7-1.4 3.3-3.1 4.3-1.7 1-3.6 1.1-5.4 0.5-0.8 1.7-2.2 2.9-4.1 3.4-1.9 0.5-3.8 0.2-5.3-0.8-1.2 1.3-3 2.2-4.9 2.2-2 0-3.7-0.9-4.9-2.2-1.5 1-3.4 1.3-5.3 0.8-1.9-0.5-3.3-1.7-4.1-3.4-1.8 0.6-3.7 0.5-5.4-0.5-1.7-1-2.8-2.6-3.1-4.3-1.8 0.1-3.7-0.6-5-2-1.4-1.3-2-3.2-1.9-5-1.8-0.3-3.4-1.4-4.4-3.1-1-1.7-1.1-3.6-0.5-5.3-1.6-0.9-2.9-2.3-3.4-4.2-0.5-1.9-0.2-3.8 0.8-5.3-1.3-1.2-2.2-2.9-2.2-4.9 0-1.9 0.9-3.7 2.2-4.9-1-1.5-1.3-3.4-0.8-5.3 0.5-1.8 1.8-3.3 3.4-4.1-0.6-1.7-0.5-3.7 0.5-5.4 1-1.6 2.6-2.7 4.4-3.1-0.1-1.8 0.5-3.6 1.9-5 1.3-1.4 3.2-2 5-1.9 0.3-1.8 1.4-3.4 3.1-4.4 1.7-0.9 3.6-1.1 5.4-0.5 0.8-1.6 2.2-2.9 4.1-3.4 1.9-0.5 3.8-0.1 5.3 0.9 1.2-1.4 2.9-2.2 4.9-2.2 1.9 0 3.7 0.8 4.9 2.2 1.5-1 3.4-1.4 5.3-0.9 1.9 0.5 3.3 1.8 4.1 3.4 1.8-0.6 3.7-0.4 5.4 0.5 1.7 1 2.7 2.6 3.1 4.4 1.8-0.1 3.6 0.5 5 1.9 1.4 1.4 2 3.2 1.9 5 1.8 0.4 3.4 1.5 4.4 3.1 1 1.7 1.1 3.7 0.5 5.4 1.6 0.8 2.9 2.3 3.4 4.1 0.5 1.9 0.1 3.8-0.8 5.3 1.3 1.2 2.2 3 2.2 4.9 0 2-0.9 3.7-2.2 4.9z"/>
						<path id="&lt;Path&gt;" class="s3" d="m-470.4 375.8c-8.2 0-14.9-6.7-14.9-14.9v-14.1c0-8.2 6.7-14.8 14.9-14.8 8.2 0 14.9 6.6 14.9 14.8v14.1c0 8.2-6.7 14.9-14.9 14.9z"/>
						<path id="&lt;Path&gt;" class="s5" d="m-470.4 358.5c-17.3 0-31.4-14-31.4-31.4v-21.1c0-17.4 14.1-31.4 31.4-31.4 17.3 0 31.4 14 31.4 31.4v21.1c0 17.4-14.1 31.4-31.4 31.4z"/>
						<g id="&lt;Group&gt;">
							<path id="&lt;Path&gt;" class="s6" d="m-489.7 328.6c-0.5-2.1 1.2-4.2 3.4-4.2h31.8c2.2 0 3.8 2.1 3.4 4.2-1.9 8.9-9.8 15.6-19.3 15.6-9.5 0-17.4-6.7-19.3-15.6z"/>
							<path id="&lt;Path&gt;" class="s7" d="m-484.1 326.7v-2.3h27.3v2.3c0 1.6-1.3 2.9-2.9 2.9h-21.4c-1.6 0-3-1.3-3-2.9z"/>
							<path id="&lt;Path&gt;" class="s8" d="m-461.6 342v0.1c-2.7 1.3-5.6 2.1-8.8 2.1-7.6 0-14.1-4.3-17.4-10.5h17.9c4.6 0 8.3 3.7 8.3 8.3z"/>
						</g>
						<path id="&lt;Path&gt;" class="s3" d="m-466.1 320.9h-8.6c0-2.4 1.9-4.3 4.3-4.3 2.4 0 4.3 1.9 4.3 4.3z"/>
						<path id="&lt;Path&gt;" class="s17" d="m-432.5 294.7q-0.5 0.4-1 0.8c-1.5 0.8-3.3 1-4.8 0.4-0.7 1.5-2.1 2.6-3.7 3.1-1.7 0.4-3.4 0.1-4.8-0.8-1.1 1.2-2.6 2-4.4 2-1.7 0-3.3-0.8-4.3-2-1.4 0.9-3.1 1.2-4.8 0.8-1.7-0.5-3-1.6-3.7-3.1-1.5 0.6-3.3 0.4-4.8-0.4-1.5-0.9-2.5-2.4-2.8-3.9-1.6 0.1-3.2-0.5-4.5-1.7-1.2-1.3-1.8-2.9-1.7-4.5-1.6-0.4-3-1.3-3.9-2.8-0.8-1.5-1-3.3-0.5-4.8-1.4-0.7-2.5-2-3-3.7-0.3-1.2-0.2-2.4 0.2-3.5q0.1 0 0.3 0.1c0.8-1.6 2.3-2.9 4.2-3.4 1.8-0.5 3.7-0.1 5.3 0.9 1.2-1.4 2.9-2.2 4.8-2.2 2 0 3.7 0.8 4.9 2.2 1.5-1 3.5-1.4 5.3-0.9 1.9 0.5 3.4 1.8 4.2 3.4 1.7-0.6 3.6-0.4 5.3 0.5 1.7 1 2.8 2.6 3.2 4.4 1.8-0.1 3.6 0.5 5 1.9 1.4 1.4 2 3.2 1.9 5 1.7 0.4 3.4 1.5 4.3 3.1 1 1.7 1.1 3.7 0.6 5.4 1.5 0.7 2.6 2 3.2 3.7z"/>
						<g id="&lt;Group&gt;">
							<path id="&lt;Path&gt;" class="s4" d="m-492.7 315.1c0.1-2.7 2.3-4.9 5.1-4.9 2.7 0 4.9 2.2 5 4.9z"/>
							<path id="&lt;Path&gt;" class="s4" d="m-458.2 315.1c0-2.7 2.3-4.9 5-4.9 2.8 0 5 2.2 5 4.9z"/>
						</g>
					</g>
					<g id="&lt;Group&gt;">
						<path id="&lt;Path&gt;" class="s9" d="m-432.1 339.3c-1.3 1.3-3.5 1.3-4.8 0-1.4-1.4-1.4-3.5 0-4.9l2.4-2.4 2.4 2.4c1.3 1.4 1.3 3.5 0 4.9z"/>
						<path id="&lt;Path&gt;" class="s9" d="m-503.9 339.3c-1.3 1.3-3.5 1.3-4.8 0-1.3-1.4-1.3-3.5 0-4.9l2.4-2.4 2.4 2.4c1.4 1.4 1.4 3.5 0 4.9z"/>
					</g>
				</g>
				<g id="&lt;Group&gt;">
					<g id="&lt;Group&gt;">
						<g id="&lt;Group&gt;">
							<path id="&lt;Path&gt;" class="s2" d="m-385.1 413.4q0-0.1 0-0.2v-25.8c0-21.1 17.1-38.2 38.3-38.2 21.1 0 38.2 17.1 38.2 38.2v25.8q0 0.1 0 0.2z"/>
							<path id="&lt;Path&gt;" class="s7" d="m-328.1 361.4c-0.4 10-8.7 17.9-18.7 17.9-10.1 0-18.4-7.9-18.8-17.9z"/>
							<path id="&lt;Path&gt;" class="s7" d="m-366 382.2c-1 1-2.6 0.3-2.6-1v-13.2c0-11.9 9.8-21.7 21.8-21.7 11.9 0 21.7 9.8 21.7 21.7v13.2c0 1.3-1.6 2-2.6 1l-19.1-19.1z"/>
							<path id="&lt;Path&gt;" class="s15" d="m-346.8 374c-8.3 0-14.9-6.7-14.9-14.9v-14.1c0-8.2 6.6-14.8 14.9-14.8 8.2 0 14.8 6.6 14.8 14.8v14.1c0 8.2-6.6 14.9-14.8 14.9z"/>
							<g id="&lt;Group&gt;">
								<path id="&lt;Path&gt;" class="s15" d="m-305.9 324.3c0 6.4-5.3 11.6-11.7 11.6-6.4 0-11.7-5.2-11.7-11.6 0-6.5 5.3-11.7 11.7-11.7 6.4 0 11.7 5.2 11.7 11.7z"/>
								<path id="&lt;Path&gt;" class="s15" d="m-364.4 324.3c0 6.4-5.3 11.6-11.7 11.6-6.4 0-11.7-5.2-11.7-11.6 0-6.5 5.3-11.7 11.7-11.7 6.4 0 11.7 5.2 11.7 11.7z"/>
							</g>
							<path id="&lt;Path&gt;" class="s25" d="m-326.2 327.8h-41.3c-11.1 0-20.1-8.9-20.1-20 0-11.1 9-20.1 20.1-20.1h41.3c11.1 0 20.1 9 20.1 20.1 0 11.1-9 20-20.1 20z"/>
							<path id="&lt;Path&gt;" class="s16" d="m-346.8 358.2c-17.4 0-31.4-14.1-31.4-31.4v-21.2c0-17.3 14-31.4 31.4-31.4 17.3 0 31.3 14.1 31.3 31.4v21.2c0 17.3-14 31.4-31.3 31.4z"/>
							<path id="&lt;Path&gt;" class="s26" d="m-340.3 319.8h-13.1v-6.7c0-3.7 2.9-6.6 6.6-6.6 3.6 0 6.5 2.9 6.5 6.6z"/>
							<g id="&lt;Group&gt;">
								<g id="&lt;Group&gt;">
									<path id="&lt;Path&gt;" class="s27" d="m-349 306.3c0 7.3-5.8 13.1-13.1 13.1-7.2 0-13.1-5.8-13.1-13.1 0-7.2 5.9-13.1 13.1-13.1 7.3 0 13.1 5.9 13.1 13.1z"/>
									<path id="&lt;Path&gt;" class="s16" d="m-353.2 306.3c0 4.9-4 8.9-8.9 8.9-4.9 0-8.9-4-8.9-8.9 0-4.9 4-8.9 8.9-8.9 4.9 0 8.9 4 8.9 8.9z"/>
									<path id="&lt;Path&gt;" class="s17" d="m-356.6 306.3h-11c0-3 2.5-5.5 5.5-5.5 3.1 0 5.5 2.5 5.5 5.5z"/>
								</g>
								<g id="&lt;Group&gt;">
									<path id="&lt;Path&gt;" class="s27" d="m-318.5 306.3c0 7.3-5.9 13.1-13.1 13.1-7.3 0-13.1-5.8-13.1-13.1 0-7.2 5.8-13.1 13.1-13.1 7.2 0 13.1 5.9 13.1 13.1z"/>
									<path id="&lt;Path&gt;" class="s16" d="m-322.7 306.3c0 4.9-4 8.9-8.9 8.9-4.9 0-8.9-4-8.9-8.9 0-4.9 4-8.9 8.9-8.9 4.9 0 8.9 4 8.9 8.9z"/>
									<path id="&lt;Path&gt;" class="s17" d="m-326.1 306.3h-11c0-3 2.4-5.5 5.5-5.5 3 0 5.5 2.5 5.5 5.5z"/>
								</g>
								<path id="&lt;Path&gt;" class="s27" d="m-342.6 308.7h-8.1v-4.7h8.1z"/>
							</g>
							<g id="&lt;Group&gt;">
								<path id="&lt;Path&gt;" class="s6" d="m-361.5 327.1c-0.2-1.4 0.9-2.7 2.3-2.7h24.7c1.4 0 2.5 1.3 2.3 2.7-1.3 7-7.4 12.2-14.6 12.2-7.3 0-13.4-5.2-14.7-12.2z"/>
								<path id="&lt;Path&gt;" class="s7" d="m-357.1 326.1v-1.7h20.5v1.7c0 1.2-1 2.2-2.2 2.2h-16.1c-1.2 0-2.2-1-2.2-2.2z"/>
								<path id="&lt;Path&gt;" class="s8" d="m-340.2 337.7v0.1c-2 1-4.3 1.5-6.6 1.5-5.7 0-10.7-3.2-13.2-7.9h13.5c3.5 0 6.3 2.8 6.3 6.3z"/>
							</g>
							<path id="&lt;Path&gt;" class="s28" d="m-337.2 290.7h-19.3c-1.7 0-3.1-1.3-3.1-3 0-1.7 1.4-3.1 3.1-3.1h19.3c1.7 0 3.1 1.4 3.1 3.1 0 1.7-1.4 3-3.1 3z"/>
						</g>
					</g>
					<g id="&lt;Group&gt;">
						<path id="&lt;Path&gt;" class="s7" d="m-343.5 387.2c0 2-1.6 3.6-3.6 3.6-2 0-3.6-1.6-3.6-3.6 0-1.9 1.6-3.5 3.6-3.5 2 0 3.6 1.6 3.6 3.5z"/>
						<path id="&lt;Path&gt;" class="s7" d="m-343.5 398.7c0 2-1.6 3.6-3.6 3.6-2 0-3.6-1.6-3.6-3.6 0-2 1.6-3.6 3.6-3.6 2 0 3.6 1.6 3.6 3.6z"/>
					</g>
				</g>
				<g id="&lt;Group&gt;">
					<path id="&lt;Path&gt;" class="s30" d="m-262.1 413.4q0-0.1 0-0.2v-25.8c0-21.1 17.1-38.2 38.2-38.2 21.1 0 38.2 17.1 38.2 38.2v25.8q0 0.1 0 0.2z"/>
					<path id="&lt;Path&gt;" class="s5" d="m-220.1 413.4h-7.9v-34.1h7.9z"/>
					<path id="&lt;Path&gt;" class="s7" d="m-203.9 377.3c-5.5 5.4-13.7 6.2-20 2.5-6.3 3.7-14.5 2.9-19.9-2.5-5.3-5.3-6.2-13.3-2.8-19.5q1.1-2 2.8-3.6l19.9-20 20 20q1.6 1.6 2.7 3.6c3.4 6.2 2.5 14.2-2.7 19.5z"/>
					<path id="&lt;Path&gt;" class="s25" d="m-223.9 349.6c-18.5 0-33.5-15.1-33.5-33.6v-22.6c0-18.5 15-33.5 33.5-33.5 18.5 0 33.6 15 33.6 33.5v22.6c0 18.5-15.1 33.6-33.6 33.6z"/>
					<g id="&lt;Group&gt;">
						<path id="&lt;Path&gt;" class="s15" d="m-183 328.2c0 6.5-5.2 11.7-11.6 11.7-6.5 0-11.7-5.2-11.7-11.7 0-6.4 5.2-11.6 11.7-11.6 6.4 0 11.6 5.2 11.6 11.6z"/>
						<path id="&lt;Path&gt;" class="s15" d="m-241.5 328.2c0 6.5-5.2 11.7-11.6 11.7-6.5 0-11.7-5.2-11.7-11.7 0-6.4 5.2-11.6 11.7-11.6 6.4 0 11.6 5.2 11.6 11.6z"/>
					</g>
					<path id="&lt;Path&gt;" class="s25" d="m-198.3 330.3h-51.1c-13.4 0-24.2-10.8-24.2-24.2 0-13.3 10.8-24.1 24.2-24.1h51.1c13.3 0 24.2 10.8 24.2 24.1 0 13.4-10.9 24.2-24.2 24.2z"/>
					<path id="&lt;Path&gt;" class="s15" d="m-223.9 374c-8.2 0-14.8-6.7-14.8-14.9v-14.1c0-8.2 6.6-14.8 14.8-14.8 8.2 0 14.9 6.6 14.9 14.8v14.1c0 8.2-6.7 14.9-14.9 14.9z"/>
					<path id="&lt;Path&gt;" class="s16" d="m-223.9 362.1c-17.3 0-31.4-14-31.4-31.4v-24.6c0-10.1 8.2-18.3 18.3-18.3h26.3c10 0 18.2 8.2 18.2 18.3v24.6c0 17.4-14 31.4-31.4 31.4z"/>
					<g id="&lt;Group&gt;">
						<path id="&lt;Path&gt;" class="s6" d="m-235.5 332.3c-0.2-1.3 0.7-2.5 2.1-2.5h19.1c1.3 0 2.3 1.2 2 2.5-1.2 5.4-5.9 9.4-11.6 9.4-5.7 0-10.4-4-11.6-9.4z"/>
						<path id="&lt;Path&gt;" class="s7" d="m-232.1 331.2v-1.4h16.4v1.4c0 0.9-0.8 1.7-1.8 1.7h-12.8c-1 0-1.8-0.8-1.8-1.7z"/>
						<path id="&lt;Path&gt;" class="s8" d="m-218.6 340.4c-1.6 0.8-3.4 1.3-5.3 1.3-4.5 0-8.5-2.6-10.4-6.3h10.7c2.7 0 5 2.2 5 5z"/>
					</g>
					<path id="&lt;Path&gt;" class="s15" d="m-219.6 326.6h-8.6c0-2.4 1.9-4.3 4.3-4.3 2.4 0 4.3 1.9 4.3 4.3z"/>
					<g id="&lt;Group&gt;">
						<path id="&lt;Compound Path&gt;" fill-rule="evenodd" class="s14" d="m-239.3 328.4c-6.9 0-12.6-5.6-12.6-12.6v-10.7h25.2v10.7c0 7-5.7 12.6-12.6 12.6zm-8.1-18.8v6.2c0 4.5 3.6 8.1 8.1 8.1 4.5 0 8.1-3.6 8.1-8.1v-6.2z"/>
						<path id="&lt;Compound Path&gt;" fill-rule="evenodd" class="s14" d="m-208.5 328.4c-6.9 0-12.5-5.6-12.5-12.6v-10.7h25.1v10.7c0 7-5.6 12.6-12.6 12.6zm-8.1-18.8v6.2c0 4.5 3.7 8.1 8.1 8.1 4.5 0 8.2-3.6 8.2-8.1v-6.2z"/>
						<path id="&lt;Path&gt;" class="s14" d="m-229 305.1h12.4v4.5h-12.4z"/>
					</g>
					<g id="&lt;Group&gt;">
						<path id="&lt;Path&gt;" class="s4" d="m-243.4 318c0-2.3 1.9-4.1 4.1-4.1 2.3 0 4.2 1.8 4.2 4.1z"/>
						<path id="&lt;Path&gt;" class="s4" d="m-212.7 318c0.1-2.3 1.9-4.1 4.2-4.1 2.3 0 4.1 1.8 4.2 4.1z"/>
					</g>
					<path id="&lt;Path&gt;" class="s28" d="m-214.2 301.1h-19.4c-1.7 0-3-1.3-3-3 0-1.7 1.3-3.1 3-3.1h19.4c1.7 0 3.1 1.4 3.1 3.1 0 1.7-1.4 3-3.1 3z"/>
				</g>
			</g>
		</g>
	</g>
</svg>